<svg width="333" height="134" viewBox="0 0 333 134" fill="none" xmlns="http://www.w3.org/2000/svg">
<rect x="255" y="117" width="78" height="9" fill="#FF9E10"/>
<path d="M81.946 0.0803009V21.4105H98.0153V34.9217H81.9781C81.9781 35.8119 81.8657 36.5392 81.8657 37.1702V58.3375C81.8771 59.8861 82.0331 61.4302 82.336 62.9491C83.0954 66.6383 85.571 68.3705 90.0862 68.5013H97.9993V81.6867C97.9029 81.6867 97.7882 81.8657 97.6918 81.8657C91.3641 81.8657 85.0043 81.9941 78.711 81.4756C75.1964 81.1462 71.9047 79.6084 69.3967 77.1242C66.8887 74.6401 65.3196 71.3633 64.9566 67.852C64.6672 65.3542 64.5315 62.8411 64.5505 60.3267V35.649H56.0248C45.1498 35.649 34.2747 35.649 23.418 35.7316C22.4518 35.7616 21.4916 35.897 20.5547 36.1354C19.7802 36.2486 19.073 36.6388 18.5642 37.2337C18.0554 37.8285 17.7796 38.5877 17.7878 39.3704C17.657 41.2655 18.0792 42.9954 20.0844 43.5942C21.6246 44.0499 23.2207 44.2893 24.8268 44.3055C30.3285 44.4041 35.8463 44.177 41.332 44.4684C47.077 44.7758 52.2071 46.7168 55.6692 51.7023C61.1549 59.6475 58.9042 73.1106 51.3329 78.8899C48.9739 80.7419 46.0786 81.7802 43.0803 81.8496H2.31496C2.00752 81.8496 1.68403 81.8496 1.13339 81.7349C1.13339 77.3344 1.13339 73.0303 1.21369 68.7904C1.21369 68.4508 2.42968 67.8681 3.07438 67.852H36.67C39.5975 67.7373 41.41 66.2345 41.6372 63.9517C41.9446 60.9255 40.7791 59.3722 37.5923 58.6748C36.5784 58.4836 35.5497 58.3815 34.5179 58.3696C27.8644 58.2228 21.1994 58.2549 14.5482 57.8993C12.0421 57.6226 9.59237 56.9682 7.28215 55.9583C2.9459 54.3408 1.32841 50.5208 0.486394 46.2488C0.371679 45.6981 0.162896 45.1658 0 44.6313V36.8627C0.176662 36.6012 0.316615 36.319 0.422154 36.023C1.86069 28.0273 5.85967 23.5465 13.7223 22.2663C18.5756 21.6181 23.4714 21.342 28.3669 21.4403C39.6962 21.3279 51.1356 21.4403 62.5108 21.4403C63.5479 21.4403 64.5826 21.6514 64.5665 19.9697C64.4862 13.3185 64.5665 6.65121 64.4702 0L81.946 0.0803009ZM118.843 0.0803009V19.2906C118.843 21.1191 119.408 21.6032 121.172 21.5551C125.687 21.4404 130.234 21.3601 134.75 21.5551C140.267 21.8304 145.67 22.7022 150.236 26.2309C152.28 27.8391 153.926 29.8957 155.048 32.2416C156.17 34.5876 156.737 37.1602 156.706 39.7604C157.016 53.5493 156.853 67.2692 156.853 81.1039C156.825 81.338 156.773 81.5651 156.692 81.7854H139.522V44.9548C139.556 44.1127 139.522 43.2684 139.425 42.431C138.698 37.9801 137.094 36.5874 131.56 36.2318C127.823 36.0046 124.07 36.2318 120.233 36.2318C118.616 36.2318 118.777 37.3331 118.777 38.3517V81.8496H101.851V2.39756C101.851 1.63584 101.851 0.777772 101.753 0.0803009H118.841H118.843ZM178.651 0.0803009V16.5741H160.85V0.0780066L178.651 0.0803009ZM199.947 81.8496H182.744V21.539H184.768C204.946 21.539 225.223 21.4587 245.338 21.6193C248.876 21.7363 252.381 22.3351 255.758 23.3997C262.781 25.4393 266.294 30.6658 267.476 37.6405C267.769 39.4851 267.911 41.3527 267.895 43.2226V81.8496H250.596V79.5025V45.3448C250.596 37.9984 248.8 36.218 241.453 36.1538C239.577 36.1538 237.684 36.2501 235.823 36.1538C234.203 36.0574 233.703 36.5736 233.719 38.2095V81.8473H216.081V79.5828V38.4297C216.081 36.6998 215.691 36.0368 213.846 36.1171C210.029 36.2546 206.208 36.2546 202.39 36.1171C200.463 36.1171 199.848 36.553 199.848 38.5766C199.947 52.1704 199.848 65.7642 199.848 79.3396L199.947 81.8473V81.8496ZM274.999 35.3737V21.6675C275.63 21.6675 276.18 21.539 276.731 21.539C287.799 21.539 298.869 21.3601 309.936 21.539C316.588 21.6675 322.883 23.3836 327.527 28.6904C330.615 32.1994 332.307 36.7198 332.283 41.394C332.478 54.5335 332.366 67.673 332.382 80.8149C332.361 81.1615 332.323 81.5069 332.267 81.8496C331.7 81.8496 331.2 81.9643 330.649 81.9643C316.604 81.9643 302.558 82.0446 288.576 81.9643C286.19 82.0481 283.811 81.645 281.585 80.7796C279.359 79.9141 277.333 78.6045 275.63 76.9306C274.239 75.5265 273.138 73.8618 272.392 72.032C271.645 70.2021 271.266 68.243 271.277 66.2666C271.173 63.3641 271.363 60.4584 271.844 57.5941C273.202 50.7961 277.864 47.0908 284.385 45.7463C287.796 45.0547 291.261 44.6602 294.741 44.567C300.631 44.3881 306.522 44.567 312.412 44.567H314.452C315.278 39.5654 312.185 36.023 306.667 35.8762C297.233 35.6169 287.785 35.6008 278.332 35.4861C277.249 35.3576 276.228 35.3737 274.999 35.3737ZM304.127 68.1434V68.4187H312.639C314.257 68.4187 314.871 68.0791 314.759 66.3951C314.63 64.2021 314.63 62.0034 314.759 59.8104C314.874 58.1906 314.192 57.8671 312.752 57.8832H297.444C295.514 57.913 293.596 58.1792 291.731 58.677C289.563 59.2736 288.496 61.7032 288.948 64.6147C288.967 65.1047 289.087 65.5855 289.3 66.0269C289.514 66.4684 289.816 66.8611 290.188 67.1803C290.56 67.4995 290.994 67.7384 291.463 67.882C291.932 68.0256 292.425 68.0709 292.913 68.0149C296.602 68.2076 300.339 68.1434 304.079 68.1434H304.125H304.127ZM160.964 81.8496V21.6514H178.764V81.8496H160.964Z" fill="#111111"/>
<path d="M266.06 122C263.279 122.287 260.556 122.43 257.89 122.43C255.941 122.43 254.378 121.842 253.203 120.667C252.028 119.492 251.44 117.929 251.44 115.98V105.015H248.86V99.21H251.44L252.3 94.05H258.965V99.21H264.34V105.015H258.965V114.905C258.965 115.335 259.108 115.693 259.395 115.98C259.682 116.267 260.04 116.41 260.47 116.41H266.06V122ZM277.279 116.41C278.798 116.41 280.518 116.123 282.439 115.55V112.97H276.204C275.774 112.97 275.415 113.113 275.129 113.4C274.842 113.687 274.699 114.045 274.699 114.475V114.905C274.699 115.335 274.842 115.693 275.129 115.98C275.415 116.267 275.774 116.41 276.204 116.41H277.279ZM269.324 99.64C274.57 99.0667 279.3 98.78 283.514 98.78C285.463 98.78 287.025 99.3677 288.201 100.543C289.376 101.718 289.964 103.281 289.964 105.23V122H283.299L282.869 119.85C281.521 120.739 280.131 121.398 278.698 121.828C277.293 122.229 276.103 122.43 275.129 122.43H273.624C271.674 122.43 270.112 121.842 268.937 120.667C267.761 119.492 267.174 117.929 267.174 115.98V114.045C267.174 112.096 267.761 110.533 268.937 109.358C270.112 108.183 271.674 107.595 273.624 107.595H282.439V105.875C282.439 105.445 282.295 105.087 282.009 104.8C281.722 104.513 281.364 104.37 280.934 104.37C279.07 104.37 277.006 104.456 274.742 104.628C272.506 104.8 270.7 104.929 269.324 105.015V99.64ZM305.432 122C303.511 122.287 301.677 122.43 299.928 122.43C298.208 122.43 296.76 121.842 295.585 120.667C294.41 119.492 293.822 117.929 293.822 115.98V91.9H301.347V114.905C301.347 115.335 301.49 115.693 301.777 115.98C302.064 116.267 302.422 116.41 302.852 116.41H305.432V122ZM315.96 112.97V122H308.435V91.9H315.96V107.165H319.4L324.13 99.21H332.085L325.635 110.175L332.085 122H324.13L319.185 112.97H315.96Z" fill="black"/>
</svg>
