<svg width="146" height="37" viewBox="0 0 146 37" xmlns="http://www.w3.org/2000/svg"><title>sthima</title><g fill-rule="nonzero" fill="#111"><path d="M36.408.331v9.297h7.004v5.889h-6.99c0 .388-.049.705-.049.98v9.226c.005.675.073 1.348.205 2.01.331 1.608 1.41 2.363 3.378 2.42h3.449V35.9c-.042 0-.092.078-.134.078-2.758 0-5.53.056-8.273-.17a6.651 6.651 0 0 1-5.995-5.938 26.746 26.746 0 0 1-.177-3.28V15.834H25.11c-4.74 0-9.48 0-14.212.036a5.79 5.79 0 0 0-1.248.176 1.41 1.41 0 0 0-1.206 1.41c-.057.826.127 1.58 1.001 1.841a7.554 7.554 0 0 0 2.067.31c2.398.043 4.803-.056 7.194.071 2.504.134 4.74.98 6.249 3.153 2.391 3.463 1.41 9.331-1.89 11.85a6.052 6.052 0 0 1-3.597 1.29H1.7c-.134 0-.275 0-.515-.05 0-1.918 0-3.794.035-5.642 0-.148.53-.402.811-.409h14.643c1.276-.05 2.066-.705 2.165-1.7.134-1.319-.374-1.996-1.763-2.3a7.71 7.71 0 0 0-1.34-.133c-2.9-.064-5.805-.05-8.704-.205a10.89 10.89 0 0 1-3.167-.846c-1.89-.705-2.595-2.37-2.962-4.232-.05-.24-.141-.472-.212-.705v-3.386c.077-.114.138-.237.184-.366.627-3.485 2.37-5.438 5.797-5.996a41.867 41.867 0 0 1 6.383-.36c4.938-.049 9.924 0 14.882 0 .452 0 .903.092.896-.641-.035-2.899 0-5.805-.042-8.704l7.617.035zM52.49.331v8.373c0 .797.246 1.008 1.015.987 1.968-.05 3.95-.085 5.918 0 2.405.12 4.76.5 6.75 2.038a7.392 7.392 0 0 1 2.82 5.897c.135 6.01.064 11.99.064 18.02-.012.102-.035.201-.07.297h-7.484V19.89c.015-.367 0-.735-.042-1.1-.317-1.94-1.016-2.547-3.428-2.702-1.629-.099-3.265 0-4.937 0-.705 0-.635.48-.635.924v18.959h-7.377V1.341c0-.332 0-.706-.043-1.01h7.448zM78.558.331V7.52h-7.759V.33zM87.84 35.971h-7.498V9.684h.882c8.795 0 17.633-.035 26.4.035 1.542.051 3.07.312 4.542.776 3.061.889 4.592 3.167 5.107 6.207.128.804.19 1.618.183 2.433v16.836h-7.54v-1.023V20.06c0-3.202-.783-3.978-3.985-4.006-.818 0-1.643.042-2.454 0-.706-.042-.924.183-.917.896V35.97h-7.688v-.987-17.937c0-.754-.17-1.043-.974-1.008a69.346 69.346 0 0 1-4.993 0c-.84 0-1.108.19-1.108 1.072.043 5.925 0 11.85 0 17.767l.043 1.093zM120.552 15.714V9.74c.275 0 .515-.056.755-.056 4.824 0 9.649-.078 14.473 0 2.899.056 5.643.804 7.667 3.117a8.316 8.316 0 0 1 2.073 5.537c.085 5.727.036 11.454.043 17.182a4.359 4.359 0 0 1-.05.451c-.247 0-.465.05-.705.05-6.122 0-12.244.035-18.338 0a7.667 7.667 0 0 1-5.643-2.194 6.552 6.552 0 0 1-1.897-4.648 18.761 18.761 0 0 1 .247-3.78c.592-2.963 2.624-4.578 5.466-5.164a26.259 26.259 0 0 1 4.514-.514c2.567-.078 5.135 0 7.702 0h.889c.36-2.18-.988-3.724-3.393-3.788-4.112-.113-8.23-.12-12.35-.17-.472-.056-.917-.049-1.453-.049zm12.696 14.283v.12h3.71c.705 0 .973-.148.924-.882a24.361 24.361 0 0 1 0-2.87c.05-.706-.247-.847-.875-.84h-6.672c-.841.013-1.677.129-2.49.346-.945.26-1.41 1.319-1.213 2.588a1.552 1.552 0 0 0 1.728 1.482c1.608.084 3.237.056 4.867.056h.02zM70.849 35.971V9.733h7.758v26.238z"></path></g></svg>